<?xml version="1.0" encoding="UTF-8" standalone="no"?><!DOCTYPE svg PUBLIC "-//W3C//DTD SVG 1.1//EN" "http://www.w3.org/Graphics/SVG/1.1/DTD/svg11.dtd"><svg width="100%" height="100%" viewBox="0 0 813 717" version="1.1" xmlns="http://www.w3.org/2000/svg" xmlns:xlink="http://www.w3.org/1999/xlink" xml:space="preserve" xmlns:serif="http://www.serif.com/" style="fill-rule:evenodd;clip-rule:evenodd;stroke-linecap:round;stroke-linejoin:round;stroke-miterlimit:1.5;"><rect id="アートボード1" x="0" y="0" width="812.5" height="716.667" style="fill:none;"/><path d="M341.667,391.667c-0.695,3.472 -16.123,24.818 -29.167,29.166c-14.583,4.861 -50,3.473 -58.333,0c-6.904,-2.876 3.597,-15.044 8.333,-20.833c6.25,-7.639 20.139,-20.833 29.167,-25c7.566,-3.492 18.055,-1.389 25,-0c6.09,1.218 20.139,4.167 16.666,8.333c-3.472,4.167 -31.944,13.889 -37.5,16.667c-1.242,0.621 2.778,-0 4.167,-0c3.472,-0 11.219,1.09 16.667,-0c6.944,-1.389 25.694,-11.806 25,-8.333Z" style="fill:#00ff15;stroke:#000;stroke-width:1.67px;"/><path d="M416.667,488.987c-2.778,2.778 -10.417,11.013 -16.667,11.013c-6.25,-0 -19.487,-3.274 -20.833,-11.013c-2.778,-15.972 9.722,-65.128 4.166,-84.82c-4.541,-16.096 -31.25,-27.084 -37.5,-33.334c-0.982,-0.982 -1.347,-4.503 0,-4.166c2.778,0.694 13.195,6.944 16.667,8.333c1.29,0.516 3.472,0.694 4.167,-0c0.694,-0.694 0.889,-3.1 -0,-4.167c-3.473,-4.166 -17.361,-16.666 -20.834,-20.833c-0.889,-1.067 -0.694,-3.472 0,-4.167c0.695,-0.694 3.082,-0.867 4.167,0c3.472,2.778 13.194,13.889 16.667,16.667c1.084,0.868 4.713,1.277 4.166,-0c-2.083,-4.861 -14.583,-23.611 -16.666,-29.167c-0.69,-1.839 2.777,-4.166 4.166,-4.166c1.389,-0 3.025,2.568 4.167,4.166c3.472,4.861 13.194,20.834 16.667,25c0.889,1.067 3.97,1.375 4.166,0c0.695,-4.861 -0.694,-23.611 0,-29.166c0.244,-1.949 2.778,-4.167 4.167,-4.167c1.389,-0 3.546,2.303 4.167,4.167c1.389,4.166 2.777,15.277 4.166,20.833c1.066,4.261 2.778,9.722 4.167,12.5c0.878,1.757 2.778,3.472 4.167,4.167c1.242,0.621 3.184,0.982 4.166,-0c3.473,-3.473 12.5,-17.361 16.667,-20.834c2.134,-1.778 6.944,-0.694 8.333,0c1.243,0.621 0.621,2.925 0,4.167c-1.389,2.778 -5.848,8.152 -8.333,12.5c-2.778,4.861 -6.25,11.806 -8.333,16.667c-1.73,4.037 -2.778,8.333 -4.167,12.5c-1.389,4.166 -3.546,8.152 -4.167,12.5c-0.694,4.861 0,11.111 0,16.666l0,29.167c0,2.778 -0.673,5.638 0,8.333c1.389,5.556 6.945,19.891 8.334,25c0.494,1.819 1.332,4.322 -0,5.654Z" style="fill:#e7c9c9;stroke:#000;stroke-width:1.67px;"/><path d="M337.5,350c-4.008,2.778 -28.216,11.111 -40.716,12.5c-11.442,1.271 -23.619,0.167 -34.284,-4.167c-11.964,-4.861 -28.472,-18.055 -37.5,-25c-6.227,-4.79 -20.139,-10.416 -16.667,-16.666c3.473,-6.25 25.695,-16.667 37.5,-20.834c10.56,-3.726 23.611,-4.861 33.334,-4.166c8.761,0.626 17.852,3.227 25,8.333c9.722,6.944 29.166,27.778 33.333,33.333c1.667,2.223 -5.583,0.393 -8.333,0c-9.723,-1.389 -41.667,-7.639 -50,-8.333c-1.384,-0.115 -0.621,2.924 -0,4.167c0.694,1.389 2.532,3.077 4.166,4.166c2.084,1.389 5.45,3.014 8.334,4.167c3.472,1.389 8.277,2.96 12.5,4.167c4.861,1.389 11.111,2.777 16.666,4.166c5.556,1.389 20.675,1.389 16.667,4.167Zm-62.5,-66.667c-3.472,0 -21.528,-4.861 -29.167,-8.333c-6.322,-2.874 -12.582,-6.884 -16.666,-12.5c-5.556,-7.639 -18.056,-27.778 -16.667,-33.333c1.389,-5.556 17.361,-1.389 25,-0c7.359,1.338 14.583,4.861 20.833,8.333c6.071,3.373 12.815,6.722 16.667,12.5c4.167,6.25 12.186,24.306 8.333,25c-3.853,0.694 -26.59,-18.75 -31.451,-20.833c-2.647,-1.135 0.618,5.984 2.285,8.333c2.464,3.472 9.027,9.028 12.5,12.5c2.777,2.778 11.805,8.333 8.333,8.333Zm79.167,41.667c-2.781,0.694 -20.913,-9.1 -29.167,-16.667c-8.333,-7.639 -15.278,-19.444 -20.833,-29.166c-5.248,-9.184 -9.935,-18.905 -12.5,-29.167c-2.778,-11.111 -4.861,-27.083 -4.167,-37.5c0.584,-8.765 0,-23.611 8.333,-25c8.334,-1.389 30.175,7.09 41.667,16.667c12.5,10.416 27.083,32.639 33.333,45.833c4.794,10.12 4.861,22.222 4.167,33.333c-0.694,11.111 -4.861,30.556 -8.333,33.334c-3.473,2.777 -9.096,-10.614 -12.5,-16.667c-6.25,-11.111 -21.528,-46.528 -25,-50c-3.473,-3.472 2.08,20.139 4.166,29.167c1.979,8.56 4.88,17.361 8.352,25c3.35,7.369 15.263,20.139 12.482,20.833Zm45.833,8.333c-2.083,-1.389 -6.25,-17.361 -8.333,-25c-1.864,-6.832 -3.473,-15.277 -4.167,-20.833c-0.517,-4.134 -0.415,-8.354 0,-12.5c0.694,-6.944 1.389,-20.139 4.167,-29.167c2.74,-8.905 7.805,-16.952 12.5,-25c4.861,-8.333 10.416,-17.361 16.666,-25c6.219,-7.601 16.667,-18.055 20.834,-20.833c1.634,-1.09 3.077,2.532 4.166,4.167c1.389,2.083 2.778,5.555 4.167,8.333c1.389,2.778 2.882,5.506 4.167,8.333c3.472,7.639 13.889,27.084 16.666,37.5c2.148,8.052 1.179,16.751 0,25c-1.389,9.723 -4.861,24.306 -8.333,33.334c-2.907,7.558 -8.333,15.277 -12.5,20.833c-3.536,4.714 -8.026,8.665 -12.5,12.5c-4.861,4.167 -13.889,11.111 -16.667,12.5c-1.242,0.621 0,-2.778 0,-4.167l0,-8.333c0,-4.167 -0.613,-11.145 0,-16.667c0.695,-6.25 3.003,-13.847 4.167,-20.833c1.389,-8.333 4.167,-25 4.167,-29.167c-0,-1.964 -3.077,2.533 -4.167,4.167c-1.389,2.083 -2.778,5.556 -4.167,8.333c-2.083,4.167 -6.25,11.806 -8.333,16.667c-1.73,4.037 -2.96,8.277 -4.167,12.5c-1.389,4.861 -2.777,11.111 -4.166,16.667c-1.389,5.555 -2.084,18.055 -4.167,16.666Z" style="fill:#00ff17;stroke:#000;stroke-width:1.67px;"/><path d="M375,220.833c-2.778,-2.083 -14.583,-19.444 -16.667,-29.166c-2.057,-9.603 1.238,-19.793 4.167,-29.167c3.472,-11.111 11.806,-32.639 16.667,-37.5c3.541,-3.541 9.241,4.531 12.5,8.333c4.166,4.861 9.722,14.584 12.5,20.834c2.325,5.233 3.472,11.111 4.166,16.666c0.689,5.513 0.695,11.806 0,16.667c-0.621,4.348 -1.614,8.926 -4.166,12.5c-3.473,4.861 -13.195,16.667 -16.667,16.667c-3.472,-0 -3.6,-10.969 -4.167,-16.667c-0.694,-6.978 1.389,-25.895 0,-25.201c-1.389,0.695 -6.944,21.695 -8.333,29.368c-0.99,5.466 2.778,18.75 0,16.666Zm108.333,58.334c-2.083,-0.695 1.389,-14.584 4.167,-20.834c2.778,-6.25 7.639,-11.805 12.5,-16.666c4.861,-4.861 10.455,-9.395 16.667,-12.5c8.333,-4.167 27.777,-11.806 33.333,-12.5c2.756,-0.345 0.345,5.577 0,8.333c-0.694,5.556 -2.083,18.75 -4.167,25c-1.583,4.751 -5.555,8.333 -8.333,12.5c-2.778,4.167 -4.258,9.589 -8.333,12.5c-4.861,3.472 -14.584,6.944 -20.834,8.333c-5.423,1.206 -18.617,5.202 -16.666,0c2.083,-5.555 27.777,-29.861 29.166,-33.333c1.389,-3.472 -14.583,7.639 -20.833,12.5c-6.202,4.824 -14.583,17.361 -16.667,16.667Zm-41.666,62.5c6.674,-7.408 20.022,-22.223 30.439,-29.167c9.544,-6.363 21.162,-9.722 32.061,-12.5c10.85,-2.765 22.222,-4.861 33.333,-4.167c11.111,0.695 28.472,5.556 33.333,8.334c2.697,1.541 -2.568,5.67 -4.166,8.333c-2.084,3.472 -5.849,8.152 -8.334,12.5c-2.777,4.861 -3.941,12.275 -8.333,16.667c-5.556,5.555 -18.056,12.5 -25,16.666c-5.326,3.196 -10.531,7.367 -16.667,8.334c-8.815,1.389 -26.505,2.083 -36.227,-0c-8.277,-1.774 -19.811,-9.723 -22.106,-12.5c-1.978,-2.394 5.556,-2.778 8.333,-4.167c4.167,-2.083 10.774,-6.369 16.667,-8.333c8.333,-2.778 31.25,-6.25 33.333,-8.334c2.084,-2.083 -14.795,-4.166 -20.833,-4.166c-5.316,-0 -10.234,2.89 -15.394,4.166c-7.414,1.834 -21.864,5.169 -29.089,6.836m-1.35,34.831c0.906,-2.083 20.782,0.757 30.439,4.167c11.111,3.922 28.106,11.9 36.227,19.368c6.956,6.397 17.361,21.034 12.5,25.445c-4.861,4.41 -30.555,2.933 -41.666,1.02c-9.182,-1.581 -18.75,-6.25 -25,-12.5c-6.25,-6.25 -11.111,-20.833 -12.5,-25c-0.44,-1.318 2.849,-0.439 4.166,-0c2.084,0.694 5.556,2.778 8.334,4.167c5.555,2.777 22.916,12.5 25,12.5c2.083,-0 -7.849,-8.883 -12.5,-12.5c-6.25,-4.861 -25.907,-14.584 -25,-16.667Z" style="fill:#00ff16;stroke:#000;stroke-width:1.67px;"/><g transform="matrix(4.16667,0,0,4.16667,-1254.31,-731.992)"><g><g transform="matrix(0.842751,-0.538304,0.538304,0.842751,-100.058,212.453)"><text x="313.611px" y="277.488px" style="font-family:'Arial-BoldMT', 'Arial', sans-serif;font-weight:700;font-size:40px;">A</text></g><g transform="matrix(0.892867,-0.45032,0.45032,0.892867,-81.7722,180.277)"><text x="338.001px" y="261.998px" style="font-family:'Arial-BoldMT', 'Arial', sans-serif;font-weight:700;font-size:40px;">e</text></g><g transform="matrix(0.948716,-0.316131,0.316131,0.948716,-61.2721,126.053)"><text x="357.876px" y="251.875px" style="font-family:'Arial-BoldMT', 'Arial', sans-serif;font-weight:700;font-size:40px;">s</text></g><g transform="matrix(0.993672,-0.112324,0.112324,0.993672,-25.1371,44.1391)"><text x="379.151px" y="245.153px" style="font-family:'Arial-BoldMT', 'Arial', sans-serif;font-weight:700;font-size:40px;">t</text></g><g transform="matrix(0.983938,0.178511,-0.178511,0.983938,49.6746,-66.1655)"><text x="392.512px" y="242.954px" style="font-family:'Arial-BoldMT', 'Arial', sans-serif;font-weight:700;font-size:40px;">h</text></g><g transform="matrix(0.928413,0.371551,-0.371551,0.928413,121.844,-137.016)"><text x="416.491px" y="247.688px" style="font-family:'Arial-BoldMT', 'Arial', sans-serif;font-weight:700;font-size:40px;">e</text></g><g transform="matrix(0.883335,0.468742,-0.468742,0.883335,171.038,-175.024)"><text x="437.129px" y="256.09px" style="font-family:'Arial-BoldMT', 'Arial', sans-serif;font-weight:700;font-size:40px;">s</text></g><g transform="matrix(0.855482,0.517832,-0.517832,0.855482,204.112,-197.958)"><text x="456.714px" y="266.705px" style="font-family:'Arial-BoldMT', 'Arial', sans-serif;font-weight:700;font-size:40px;">i</text></g><g transform="matrix(0.834569,0.550903,-0.550903,0.834569,227.185,-211.799)"><text x="466.25px" y="272.377px" style="font-family:'Arial-BoldMT', 'Arial', sans-serif;font-weight:700;font-size:40px;">s</text></g></g></g></svg>